<svg width="1920" height="1080" viewBox="0 0 1920 1080" fill="none" xmlns="http://www.w3.org/2000/svg">
<rect width="1920" height="1080" fill="#0D0D0D"/>
<g clip-path="url(#clip0_573_306)">
<g opacity="0.25">
<path d="M1752.19 458.665C1745.76 454.779 1732 446.978 1732 446.978C1731.9 447.089 1746.21 456.944 1753.15 461.539C1772.01 474.035 1791 486.401 1809.98 498.776C1846.63 522.668 1883.31 546.528 1920 570.373V561.846C1882.01 538.383 1844.01 514.931 1805.96 491.536C1788.08 480.538 1770.19 469.536 1752.19 458.665Z" fill="url(#paint0_radial_573_306)"/>
<path d="M1729.71 481.111C1723.45 477.04 1710.05 468.845 1710.05 468.845C1709.94 468.95 1723.82 479.204 1730.55 483.998C1748.86 497.025 1767.29 509.93 1785.72 522.842C1830.44 554.172 1875.21 585.459 1920 616.727V607.118C1874.02 576.557 1828.05 545.992 1781.99 515.518C1764.6 504.011 1747.21 492.501 1729.7 481.111H1729.71Z" fill="url(#paint1_radial_573_306)"/>
<path d="M1538.44 688.898C1526.12 673.698 1513.8 658.495 1501.32 643.375C1496.85 637.952 1487.15 626.885 1487.15 626.885C1487.02 626.951 1496.49 640.064 1501.17 646.284C1513.84 663.134 1526.67 679.903 1539.5 696.678C1625.33 808.923 1711.61 920.945 1797.63 1033.1C1838.43 1086.3 1879.22 1139.52 1920 1192.73V1161.15C1832.97 1053.55 1746.03 945.9 1659.12 838.241C1618.92 788.449 1578.77 738.628 1538.44 688.904V688.898Z" fill="url(#paint2_radial_573_306)"/>
<path d="M1752.32 542.994C1735.55 530.904 1718.78 518.808 1701.88 506.832C1695.83 502.55 1682.89 493.902 1682.89 493.902C1682.77 494.001 1696.11 504.715 1702.59 509.735C1720.21 523.369 1737.95 536.888 1755.69 550.414C1810.4 592.116 1865.19 633.744 1920 675.357V664.253C1918.91 663.462 1917.81 662.671 1916.72 661.884C1861.95 622.228 1807.2 582.55 1752.32 542.994Z" fill="url(#paint3_radial_573_306)"/>
<path d="M1731.43 561.031C1715.08 548.556 1698.75 536.079 1682.28 523.716C1676.38 519.291 1663.75 510.348 1663.75 510.348C1663.64 510.445 1676.59 521.455 1682.9 526.624C1700.03 540.659 1717.3 554.581 1734.56 568.51C1796.29 618.321 1858.13 668.042 1920 717.75V705.478C1910.52 698.212 1901.04 690.947 1891.56 683.679C1838.21 642.773 1784.89 601.843 1731.43 561.034V561.031Z" fill="url(#paint4_radial_573_306)"/>
<path d="M1710.6 578.032C1694.69 565.198 1678.79 552.358 1662.75 539.629C1657.01 535.074 1644.69 525.849 1644.69 525.849C1644.58 525.942 1657.15 537.232 1663.28 542.544C1679.93 556.953 1696.71 571.257 1713.5 585.564C1782.23 644.16 1851.11 702.64 1920 761.121V747.58C1902.16 733.127 1884.32 718.675 1866.49 704.222C1814.55 662.138 1762.65 620.026 1710.6 578.032Z" fill="url(#paint5_radial_573_306)"/>
<path d="M1621.48 641.316C1607.42 627.133 1593.37 612.944 1579.17 598.854C1574.09 593.806 1563.12 583.533 1563.12 583.533C1563 583.611 1573.96 595.946 1579.34 601.778C1593.92 617.583 1608.66 633.298 1623.39 649.012C1721.98 754.188 1820.98 859.106 1919.75 964.17C1919.83 964.256 1919.91 964.34 1919.99 964.427V943.67C1866.36 889.357 1812.75 835.038 1759.15 780.709C1713.29 734.228 1667.46 687.719 1621.48 641.319L1621.48 641.316Z" fill="url(#paint6_radial_573_306)"/>
<path d="M1685.02 597.685C1669.64 584.432 1654.27 571.173 1638.76 558.023C1633.2 553.316 1621.27 543.766 1621.27 543.766C1621.15 543.852 1633.26 555.471 1639.18 560.944C1655.23 575.787 1671.43 590.532 1687.62 605.276C1764.96 675.688 1842.49 745.961 1920 816.25V800.96C1891.89 776.634 1863.78 752.306 1835.67 727.974C1785.49 684.523 1735.33 641.046 1685.02 597.688V597.685Z" fill="url(#paint7_radial_573_306)"/>
<path d="M1660.9 740.938C1646 724.737 1631.1 708.529 1616.02 692.433C1610.62 686.672 1598.62 674.659 1598.62 674.659C1598.48 674.743 1606.19 684.42 1609.97 688.923C1690.99 785.422 1775.06 880.312 1857.82 975.844C1878.54 999.773 1899.27 1023.71 1920 1047.64V1023.88C1880.42 980.641 1840.84 937.407 1801.27 894.164C1754.52 843.066 1707.8 791.946 1660.9 740.938Z" fill="url(#paint8_radial_573_306)"/>
<path d="M1481.79 791.813C1470.65 774.529 1459.52 757.242 1448.2 740.039C1444.13 733.853 1435.09 721.041 1435.09 721.041C1434.83 721.143 1446.77 742.021 1452.55 751.776C1518.21 862.641 1585.51 972.883 1652.12 1083.38C1685.62 1138.97 1719.12 1194.57 1752.61 1250.17H1775.76C1713.18 1152.61 1650.62 1055.05 1588.08 957.469C1552.69 902.235 1517.34 846.982 1481.79 791.813Z" fill="url(#paint9_radial_573_306)"/>
<path d="M787.661 822.635C791.041 804.501 794.427 786.371 797.626 768.216C798.778 761.692 800.706 748.086 800.706 748.086C800.575 748.067 797.154 761.478 795.66 767.959C791.617 785.534 787.75 803.137 783.875 820.734C755.528 949.578 727.769 1078.51 699.695 1207.39C696.589 1221.65 693.478 1235.91 690.372 1250.17H707.056C722.766 1166.77 738.498 1083.38 754.257 999.987C765.428 940.874 776.641 881.764 787.661 822.632V822.635Z" fill="url(#paint10_radial_573_306)"/>
<path d="M1420.38 814.957C1410.52 797.177 1400.66 779.394 1390.62 761.682C1387 755.313 1378.91 742.098 1378.91 742.098C1378.65 742.188 1389.06 763.586 1394.12 773.602C1451.63 887.37 1510.8 1000.6 1569.29 1114.04C1592.68 1159.41 1616.06 1204.79 1639.43 1250.17H1660.52C1611.81 1161.9 1563.12 1073.63 1514.45 985.351C1483.13 928.539 1451.85 871.711 1420.38 814.957H1420.38Z" fill="url(#paint11_radial_573_306)"/>
<path d="M1347.12 838.089C1338.78 819.81 1330.45 801.531 1321.92 783.311C1318.85 776.759 1311.9 763.128 1311.9 763.128C1311.64 763.202 1320.22 785.115 1324.43 795.388C1372.22 912.033 1421.74 1028.23 1470.52 1144.6C1485.27 1179.79 1500.01 1214.98 1514.75 1250.17H1534C1498.18 1171.2 1462.38 1092.22 1426.6 1013.24C1400.15 954.846 1373.74 896.44 1347.12 838.092L1347.12 838.089Z" fill="url(#paint12_radial_573_306)"/>
<path d="M1083.83 885.968C1080.97 866.638 1078.13 847.301 1075.07 827.99C1073.97 821.041 1071.14 806.492 1071.14 806.492C1070.86 806.517 1072.91 829.419 1074.06 840.201C1087.06 962.557 1101.83 1084.8 1115.85 1207.08C1117.5 1221.44 1119.14 1235.8 1120.79 1250.17H1136.74C1128.07 1190.49 1119.42 1130.81 1110.78 1071.13C1101.85 1009.4 1092.95 947.674 1083.83 885.965L1083.83 885.968Z" fill="url(#paint13_radial_573_306)"/>
<path d="M1033.65 889.363C1031.85 869.949 1030.05 850.535 1028.04 831.137C1027.31 824.157 1025.26 809.521 1025.26 809.521C1024.99 809.534 1025.81 832.489 1026.37 843.301C1032.75 965.993 1040.9 1088.63 1048.32 1211.28C1049.1 1224.24 1049.88 1237.21 1050.67 1250.17H1066.41C1061.12 1191.88 1055.85 1133.58 1050.58 1075.29C1044.98 1013.31 1039.43 951.329 1033.65 889.363Z" fill="url(#paint14_radial_573_306)"/>
<path d="M917.088 890.52C917.714 871.059 918.344 851.599 918.77 832.135C918.924 825.131 918.713 810.405 918.713 810.405C918.44 810.396 916.386 833.298 915.595 844.104C906.624 966.691 899.428 1089.37 891.491 1212C890.669 1224.73 889.84 1237.45 889.014 1250.17H904.701C906.697 1192.41 908.702 1134.64 910.718 1076.88C912.884 1014.76 915.099 952.644 917.092 890.52H917.088Z" fill="url(#paint15_radial_573_306)"/>
<path d="M816.849 883.98C819.568 864.638 822.294 845.292 824.813 825.931C825.719 818.963 827.094 804.278 827.094 804.278C826.822 804.25 822.306 826.926 820.355 837.633C798.206 959.137 777.816 1080.86 756.692 1202.48C753.931 1218.38 751.162 1234.27 748.401 1250.17H764.499C773.131 1189.84 781.771 1129.52 790.422 1069.2C799.273 1007.46 808.171 945.732 816.849 883.98Z" fill="url(#paint16_radial_573_306)"/>
<path d="M1005.92 890.492C1004.69 871.05 1003.47 851.608 1002.04 832.173C1001.53 825.177 999.913 810.51 999.913 810.51C999.641 810.52 999.771 833.481 1000.01 844.303C1002.74 967.081 1007.24 1089.84 1011 1212.6C1011.38 1225.13 1011.76 1237.65 1012.14 1250.17H1027.81C1024.3 1192.34 1020.8 1134.52 1017.3 1076.69C1013.55 1014.62 1009.85 952.551 1005.92 890.489V890.492Z" fill="url(#paint17_radial_573_306)"/>
<path d="M972.61 891.14C972.077 871.68 971.547 852.216 970.813 832.756C970.548 825.754 969.461 811.053 969.461 811.053C969.185 811.053 968.498 834.011 968.352 844.833C966.693 967.624 966.8 1090.44 966.178 1213.23C966.117 1225.55 966.052 1237.86 965.986 1250.17H981.627C980.19 1192.62 978.758 1135.08 977.337 1077.53C975.805 1015.4 974.319 953.267 972.61 891.14Z" fill="url(#paint18_radial_573_306)"/>
<path d="M1448.7 804.731C1438.25 787.171 1427.8 769.608 1417.17 752.12C1413.34 745.831 1404.82 732.796 1404.82 732.796C1404.56 732.892 1415.67 754.061 1421.07 763.962C1482.33 876.452 1545.24 988.362 1607.48 1100.5C1635.17 1150.39 1662.84 1200.28 1690.5 1250.17H1712.47C1657.76 1157.8 1603.07 1065.42 1548.41 973.029C1515.21 916.914 1482.06 860.784 1448.7 804.731H1448.7Z" fill="url(#paint19_radial_573_306)"/>
<path d="M1612.74 861.153C1575.18 810.033 1537.65 758.898 1499.95 707.847C1488.42 692.244 1476.91 676.634 1465.23 661.103C1461.04 655.534 1451.94 644.141 1451.94 644.141C1451.81 644.203 1460.58 657.617 1464.94 663.996C1476.72 681.258 1488.67 698.448 1500.62 715.642C1580.55 830.697 1660.93 945.544 1741.05 1060.51C1785.1 1123.72 1829.13 1186.95 1873.14 1250.17H1898.93C1886.97 1233.92 1875 1217.67 1863.03 1201.42C1779.53 1088.03 1696.11 974.61 1612.74 861.159L1612.74 861.153Z" fill="url(#paint20_radial_573_306)"/>
<path d="M1272.34 787.471C1265.57 770.15 1258.81 752.829 1251.87 735.552C1249.38 729.347 1243.77 716.581 1243.77 716.581C1243.64 716.615 1248.36 731.285 1250.79 738.299C1257.36 757.276 1264.11 776.215 1270.85 795.155C1315.94 921.9 1361.52 1048.53 1406.82 1175.22C1415.76 1200.2 1424.68 1225.19 1433.61 1250.17H1452.12C1414.2 1152.64 1376.31 1055.1 1338.46 957.555C1316.45 900.855 1294.49 844.141 1272.34 787.474V787.471Z" fill="url(#paint21_radial_573_306)"/>
<path d="M1161.69 809.249C1157.24 791.45 1152.79 773.649 1148.16 755.881C1146.5 749.5 1142.61 736.328 1142.61 736.328C1142.47 736.349 1145.24 751.339 1146.74 758.52C1150.78 777.949 1155 797.354 1159.21 816.759C1187.42 946.613 1216.11 1076.4 1244.51 1206.23C1247.72 1220.88 1250.92 1235.53 1254.12 1250.17H1271.08C1249.05 1161.45 1227.05 1072.73 1205.08 983.993C1190.65 925.742 1176.27 867.481 1161.69 809.252V809.249Z" fill="url(#paint22_radial_573_306)"/>
<path d="M1242.41 794.358C1236.27 776.889 1230.13 759.416 1223.82 741.983C1221.55 735.723 1216.41 722.83 1216.41 722.83C1216.27 722.861 1220.47 737.633 1222.64 744.703C1228.53 763.825 1234.59 782.913 1240.65 801.999C1281.16 929.735 1322.18 1057.37 1362.91 1185.06C1369.83 1206.77 1376.74 1228.47 1383.66 1250.17H1401.67C1368.53 1155.42 1335.44 1060.67 1302.38 965.906C1282.42 908.715 1262.51 851.515 1242.41 794.358Z" fill="url(#paint23_radial_573_306)"/>
<path d="M1346.18 767.14C1337.87 750.259 1329.56 733.378 1321.09 716.551C1318.04 710.51 1311.3 698.104 1311.3 698.104C1311.16 698.147 1317.2 712.504 1320.25 719.357C1328.51 737.903 1336.94 756.399 1345.37 774.895C1401.74 898.681 1458.61 1022.32 1515.2 1146.05C1531.07 1180.75 1546.93 1215.46 1562.79 1250.17H1582.91C1531.05 1144.43 1479.23 1038.68 1427.45 932.917C1400.4 877.649 1373.39 822.365 1346.18 767.143V767.14Z" fill="url(#paint24_radial_573_306)"/>
<path d="M1372.74 957.373C1363.65 936.319 1354.57 915.261 1345.23 894.278C1341.87 886.712 1333.88 870.474 1333.88 870.474C1333.6 870.548 1338.98 886.092 1341.64 893.221C1348.85 912.582 1356.3 931.885 1363.74 951.187C1386.45 1010.05 1409.41 1068.86 1432.33 1127.66C1448.25 1168.5 1464.16 1209.34 1480.07 1250.17H1498.29C1483.56 1215.78 1468.83 1181.38 1454.1 1146.99C1427.03 1083.77 1400.01 1020.54 1372.74 957.373H1372.74Z" fill="url(#paint25_radial_573_306)"/>
<path d="M1500.93 767.503C1489.41 750.724 1477.88 733.943 1466.18 717.245C1461.98 711.251 1452.7 698.861 1452.7 698.861C1452.39 698.994 1468.56 725.044 1476.3 737.189C1547.26 848.591 1619.44 959.497 1691.1 1070.61C1729.7 1130.45 1768.25 1190.32 1806.83 1250.17H1831.12C1757.92 1143.22 1684.76 1036.24 1611.63 929.255C1574.77 875.323 1537.95 821.369 1500.93 767.503Z" fill="url(#paint26_radial_573_306)"/>
<path d="M1561.34 676.734C1548.54 661.794 1535.74 646.851 1522.79 631.995C1518.15 626.671 1508.1 615.803 1508.1 615.803C1507.97 615.871 1517.85 628.786 1522.72 634.907C1535.92 651.49 1549.28 667.989 1562.63 684.495C1651.97 794.935 1741.76 905.146 1831.3 1015.49C1860.88 1051.95 1890.44 1088.42 1920 1124.89V1096.79C1842.19 1005.73 1764.43 914.635 1686.71 823.528C1644.95 774.579 1603.23 725.608 1561.34 676.734Z" fill="url(#paint27_radial_573_306)"/>
<path d="M1634.69 850.582C1595.88 800.073 1557.11 749.546 1518.16 699.106C1506.26 683.688 1494.36 668.265 1482.31 652.926C1477.98 647.425 1468.6 636.181 1468.6 636.181C1468.47 636.247 1477.57 649.521 1482.08 655.825C1494.28 672.898 1506.65 689.893 1519.01 706.892C1601.74 820.65 1684.91 934.198 1767.82 1047.87C1817 1115.29 1866.12 1182.74 1915.28 1250.17H1920V1221.51C1911.08 1209.93 1902.17 1198.36 1893.26 1186.78C1806.99 1074.75 1720.82 962.675 1634.69 850.579V850.582Z" fill="url(#paint28_radial_573_306)"/>
<path d="M1669.46 609.019C1654.41 595.524 1639.36 582.023 1624.17 568.628C1618.73 563.831 1607.04 554.094 1607.04 554.094C1606.92 554.181 1618.75 565.986 1624.53 571.549C1640.23 586.643 1656.07 601.636 1671.9 616.634C1754.45 694.823 1837.25 772.842 1920 850.898V834.424C1885.65 803.506 1851.3 772.588 1816.95 741.667C1767.81 697.431 1718.72 653.168 1669.47 609.016L1669.46 609.019Z" fill="url(#paint29_radial_573_306)"/>
<path d="M1217.32 799.556C1211.7 781.971 1206.09 764.383 1200.3 746.836C1198.22 740.535 1193.46 727.546 1193.46 727.546C1193.32 727.574 1197.08 742.421 1199.05 749.531C1204.36 768.762 1209.84 787.959 1215.33 807.159C1252.02 935.64 1289.2 1064.03 1326.1 1192.47C1331.62 1211.7 1337.14 1230.94 1342.66 1250.17H1360.3C1330.88 1157.53 1301.49 1064.87 1272.13 972.21C1253.9 914.65 1235.7 857.084 1217.32 799.552L1217.32 799.556Z" fill="url(#paint30_radial_573_306)"/>
<path d="M1187.04 805.14C1182.06 787.431 1177.08 769.723 1171.92 752.048C1170.07 745.701 1165.78 732.609 1165.78 732.609C1165.64 732.634 1168.87 747.564 1170.58 754.715C1175.2 774.061 1180 793.379 1184.79 812.696C1216.85 941.974 1249.42 1071.17 1281.69 1200.41C1285.83 1217 1289.96 1233.59 1294.1 1250.17H1311.35C1286.07 1159.79 1260.84 1069.39 1235.63 978.997C1219.48 921.038 1203.35 863.075 1187.04 805.143V805.14Z" fill="url(#paint31_radial_573_306)"/>
<path d="M1101.7 816.969C1098.5 798.997 1095.31 781.025 1091.93 763.075C1090.72 756.628 1087.76 743.301 1087.76 743.301C1087.62 743.317 1089.34 758.405 1090.33 765.642C1093 785.224 1095.85 804.786 1098.7 824.352C1117.74 955.277 1137.3 1086.15 1156.55 1217.06C1158.17 1228.1 1159.79 1239.13 1161.41 1250.17H1177.87C1162.8 1164.59 1147.76 1078.99 1132.75 993.398C1122.43 934.585 1112.16 875.766 1101.7 816.973V816.969Z" fill="url(#paint32_radial_573_306)"/>
<path d="M1140.47 873.589C1136.44 854.529 1132.42 835.468 1128.19 816.436C1126.67 809.592 1122.96 795.292 1122.96 795.292C1122.66 795.329 1126.62 820.749 1128.66 832.693C1149.62 955.422 1172.15 1077.98 1194 1200.61C1196.95 1217.13 1199.88 1233.65 1202.83 1250.17H1219.2C1205.72 1185.66 1192.24 1121.15 1178.78 1056.64C1166.05 995.618 1153.37 934.588 1140.46 873.586L1140.47 873.589Z" fill="url(#paint33_radial_573_306)"/>
<path d="M846.164 880.25C848.276 860.991 850.392 841.735 852.304 822.464C852.991 815.534 853.913 800.948 853.913 800.948C853.614 800.923 849.428 826.321 847.638 838.29C829.233 961.28 812.372 1084.43 794.862 1207.5C792.838 1221.73 790.807 1235.95 788.779 1250.17H804.754C811.666 1188.49 818.585 1126.81 825.516 1065.13C832.44 1003.51 839.406 941.887 846.164 880.253V880.25Z" fill="url(#paint34_radial_573_306)"/>
<path d="M679.493 856.839C685.088 838.036 690.691 819.233 696.09 800.393C698.033 793.621 701.596 779.295 701.596 779.295C701.3 779.233 692.53 803.872 688.579 815.497C647.948 934.998 608.826 1054.84 569.071 1174.53C560.696 1199.75 552.313 1224.96 543.93 1250.17H561.471C582.764 1179.21 604.068 1108.26 625.388 1037.3C643.463 977.159 661.58 917.019 679.489 856.839H679.493Z" fill="url(#paint35_radial_573_306)"/>
<path d="M1827.34 472.863C1820.33 468.91 1805.13 460.897 1805.13 460.897C1804.91 461.139 1829.94 477.056 1841.68 484.333C1867.74 500.498 1893.85 516.609 1920 532.69V526.02C1908.65 519.474 1897.3 512.925 1885.95 506.389C1866.45 495.167 1846.96 483.936 1827.34 472.863H1827.34Z" fill="url(#paint36_radial_573_306)"/>
<path d="M739.608 867.636C743.944 848.619 748.29 829.605 752.43 810.56C753.92 803.714 756.531 789.258 756.531 789.258C756.232 789.211 749.116 814.188 745.94 825.968C713.316 947.041 682.223 1068.39 650.486 1189.62C645.202 1209.8 639.911 1229.99 634.623 1250.17H651.419C666.791 1183.5 682.174 1116.83 697.576 1050.17C711.63 989.33 725.723 928.502 739.604 867.639L739.608 867.636Z" fill="url(#paint37_radial_573_306)"/>
<path d="M729.605 800.318C734.224 782.591 738.851 764.861 743.298 747.106C744.896 740.731 747.768 727.428 747.768 727.428C747.622 727.403 742.688 742.557 740.472 749.872C734.485 769.633 728.675 789.428 722.858 809.221C685.022 937.934 647.667 1066.74 610.024 1195.49C604.694 1213.72 599.36 1231.94 594.026 1250.17H611.418C635.54 1158.26 659.698 1066.35 683.886 974.446C699.161 916.408 714.479 858.38 729.605 800.318Z" fill="url(#paint38_radial_573_306)"/>
<path d="M1053.44 881.875C1051.22 862.626 1049.01 843.373 1046.6 824.139C1045.73 817.224 1043.39 802.737 1043.39 802.737C1043.08 802.756 1044.63 828.344 1045.54 840.378C1054.84 964.028 1065.7 1087.61 1075.91 1211.21C1076.98 1224.2 1078.05 1237.18 1079.12 1250.17H1094.96C1088.08 1189.02 1081.2 1127.88 1074.33 1066.73C1067.41 1005.11 1060.53 943.482 1053.43 881.872L1053.44 881.875Z" fill="url(#paint39_radial_573_306)"/>
<path d="M945.973 884.768C946 865.435 946.03 846.101 945.858 826.771C945.796 819.819 945.143 805.224 945.143 805.224C944.84 805.221 943.415 830.814 942.92 842.861C937.844 966.669 934.326 1090.52 930.16 1214.35C929.757 1226.29 929.353 1238.23 928.946 1250.17H944.625C944.852 1190.24 945.09 1130.31 945.335 1070.39C945.593 1008.51 945.892 946.641 945.973 884.771V884.768Z" fill="url(#paint40_radial_573_306)"/>
<path d="M884.97 793.341C886.341 775.726 887.72 758.107 888.922 740.486C889.352 734.172 889.824 721.075 889.824 721.075C889.647 721.065 887.048 740.805 885.961 750.284C883.054 775.658 880.328 801.044 877.594 826.427C863.163 960.325 849.017 1094.24 834.636 1228.14C833.849 1235.48 833.054 1242.83 832.267 1250.17H848.529C856.005 1156.04 863.524 1061.91 871.077 967.785C875.743 909.639 880.447 851.497 884.97 793.345V793.341Z" fill="url(#paint41_radial_573_306)"/>
<path d="M1644.71 626.163C1630.17 612.302 1615.64 598.436 1600.96 584.674C1595.7 579.744 1584.39 569.722 1584.39 569.722C1584.26 569.803 1595.64 581.89 1601.22 587.595C1616.34 603.068 1631.61 618.445 1646.88 633.822C1737.75 725.36 1828.94 816.69 1920 908.108V889.568C1875.7 847.18 1831.41 804.79 1787.13 762.39C1739.69 716.96 1692.28 671.506 1644.71 626.163Z" fill="url(#paint42_radial_573_306)"/>
<path d="M611.026 777.419C618.126 760.185 625.234 742.951 632.165 725.673C634.654 719.472 639.388 706.473 639.388 706.473C639.25 706.433 632.419 720.56 629.289 727.391C620.822 745.875 612.524 764.411 604.218 782.945C548.65 906.967 493.557 1031.13 438.192 1155.21C424.069 1186.86 409.93 1218.52 395.791 1250.17H415.168C457.07 1148.93 499.025 1047.71 541.012 946.489C564.386 890.142 587.802 833.807 611.026 777.422V777.419Z" fill="url(#paint43_radial_573_306)"/>
<path d="M574.312 766.65C582.184 749.633 590.064 732.619 597.771 715.555C600.535 709.428 605.854 696.578 605.854 696.578C605.716 696.535 598.251 710.451 594.818 717.186C585.521 735.41 576.39 753.692 567.254 771.968C506.118 894.281 445.458 1016.75 384.525 1139.13C366.093 1176.14 347.649 1213.16 329.198 1250.17H349.462C398.498 1144.62 447.589 1039.08 496.718 933.562C522.618 877.934 548.557 822.321 574.312 766.65Z" fill="url(#paint44_radial_573_306)"/>
<path d="M316.388 651.124C329.697 636.476 343.014 621.834 356.174 607.099C360.889 601.819 370.328 590.6 370.328 590.6C370.201 590.522 358.305 602.271 352.729 607.983C337.623 623.465 322.666 639.04 307.698 654.613C207.555 758.82 107.838 863.295 7.87581 967.618C5.24926 970.356 2.62271 973.097 0 975.835V998.027C61.8007 930.244 123.624 862.473 185.467 794.715C229.136 746.87 272.842 699.047 316.384 651.127L316.388 651.124Z" fill="url(#paint45_radial_573_306)"/>
<path d="M540.428 755.595C549.014 738.805 557.604 722.014 566.029 705.171C569.051 699.124 574.903 686.426 574.903 686.426C574.769 686.38 566.717 700.085 562.999 706.721C552.935 724.681 543.039 742.699 533.136 760.715C466.862 881.279 401.071 1002.01 335 1122.65C311.719 1165.16 288.41 1207.66 265.105 1250.17H286.336C342.78 1140.19 399.293 1030.23 455.837 920.29C484.065 865.403 512.339 810.532 540.428 755.599V755.595Z" fill="url(#paint46_radial_573_306)"/>
<path d="M514.086 746.235C523.225 729.636 532.372 713.038 541.35 696.377C544.571 690.399 550.842 677.828 550.842 677.828C550.708 677.779 542.202 691.304 538.266 697.856C527.606 715.59 517.116 733.391 506.617 751.186C436.357 870.275 366.569 989.547 296.505 1108.71C268.78 1155.87 241.032 1203.02 213.284 1250.17H235.353C298.194 1136.44 361.097 1022.73 424.054 909.044C454.098 854.787 484.184 800.542 514.086 746.235Z" fill="url(#paint47_radial_573_306)"/>
<path d="M492.728 738.129C502.316 721.695 511.916 705.261 521.343 688.768C524.726 682.848 531.339 670.392 531.339 670.392C531.204 670.34 522.33 683.713 518.217 690.191C507.078 707.732 496.103 725.342 485.121 742.945C411.627 860.759 338.598 978.759 265.305 1096.65C233.486 1147.83 201.645 1199 169.8 1250.17H192.633C261.115 1133.19 329.678 1016.24 398.283 899.308C429.798 845.593 461.355 791.897 492.728 738.129Z" fill="url(#paint48_radial_573_306)"/>
<path d="M289.339 851.537C327.075 800.501 364.845 749.481 402.446 698.38C413.939 682.761 425.44 667.143 436.775 651.45C440.842 645.822 448.898 633.924 448.898 633.924C448.768 633.859 438.346 646.485 433.481 652.612C420.306 669.208 407.292 685.887 394.267 702.563C307.118 814.145 220.419 925.959 133.459 1037.64C88.9955 1094.74 44.4862 1151.82 0 1208.92V1243.29C12.7564 1226 25.5129 1208.71 38.2654 1191.43C121.885 1078.1 205.589 964.809 289.335 851.537H289.339Z" fill="url(#paint49_radial_573_306)"/>
<path d="M296.631 760.892C310.255 743.971 323.884 727.05 337.32 710.03C342.131 703.934 351.9 690.668 351.9 690.668C351.754 690.591 343.21 699.797 339.301 704.231C255.513 799.18 174.623 895.85 92.5514 991.77C61.7086 1027.82 30.8582 1063.86 0.00390625 1099.9V1127.7C55.868 1058.63 111.732 989.568 167.619 920.517C210.662 867.329 253.746 814.163 296.631 760.895V760.892Z" fill="url(#paint50_radial_573_306)"/>
<path d="M175.073 642.445C191.251 628.002 207.44 613.558 223.456 598.997C229.201 593.778 240.917 582.442 240.917 582.442C240.69 582.271 220.557 598.575 211.268 606.308C140.436 665.245 70.2027 724.659 0.00390625 784.095V798.169C6.61252 792.296 13.2173 786.424 19.8259 780.551C71.6081 734.541 123.429 688.557 175.073 642.448V642.445Z" fill="url(#paint51_radial_573_306)"/>
<path d="M176.09 560.916C182.211 555.995 194.764 545.257 194.764 545.257C194.545 545.071 173.191 560.342 163.338 567.583C108.66 607.763 54.2859 648.215 0.00390625 688.752V699.819C41.5372 667.202 83.0666 634.578 124.496 601.874C141.742 588.262 158.995 574.656 176.086 560.919L176.09 560.916Z" fill="url(#paint52_radial_573_306)"/>
<path d="M123.82 512.854C130.36 508.315 143.846 498.327 143.846 498.327C143.639 498.122 120.937 512.091 110.469 518.715C73.5511 542.079 36.7449 565.564 0.00390625 589.112V597.366C22.9133 581.809 45.8111 566.246 68.682 550.656C87.1063 538.098 105.538 525.546 123.817 512.851L123.82 512.854Z" fill="url(#paint53_radial_573_306)"/>
<path d="M197.517 578.727C203.465 573.667 215.642 562.647 215.642 562.647C215.419 562.467 194.618 578.222 185.018 585.692C123.045 633.921 61.4821 682.501 0.00390625 731.152V743.509C49.1672 702.65 98.3421 661.803 147.379 620.848C164.144 606.848 180.909 592.848 197.517 578.727Z" fill="url(#paint54_radial_573_306)"/>
<path d="M279.186 627.375C293.283 613.217 307.383 599.062 321.334 584.811C326.333 579.707 336.371 568.829 336.371 568.829C336.248 568.749 323.715 580.057 317.836 585.561C301.896 600.485 286.098 615.508 270.297 630.529C180.034 716.324 90.0669 802.318 0.00390625 888.244V906.765C46.8479 859.887 93.6995 813.013 140.563 766.148C186.796 719.909 233.072 673.695 279.186 627.375Z" fill="url(#paint55_radial_573_306)"/>
<path d="M152.908 440.59C159.26 436.624 172.25 428.001 172.25 428.001C172.147 427.886 156.552 436.392 149.218 440.556C129.266 451.886 109.428 463.35 89.587 474.807C59.7119 492.06 29.856 509.332 0.0078125 526.615V534.386C33.1315 514.163 66.2437 493.93 99.3136 473.648C117.216 462.668 135.125 451.691 152.912 440.587L152.908 440.59Z" fill="url(#paint56_radial_573_306)"/>
<path d="M202.678 490.882C208.63 486.519 220.738 477.105 220.738 477.105C220.626 477 205.935 486.482 199.026 491.111C180.253 503.691 161.61 516.395 142.959 529.093C95.2662 561.567 47.6236 594.088 0.00390625 626.631V636.771C50.8568 600.296 101.725 563.834 152.47 527.263C169.247 515.173 186.028 503.087 202.678 490.885V490.882Z" fill="url(#paint57_radial_573_306)"/>
<path d="M210.788 649.158C226.229 634.581 241.677 620.008 256.96 605.319C262.432 600.061 273.564 588.684 273.564 588.684C273.488 588.631 266.814 594.026 263.692 596.715C254.798 604.367 246.039 612.119 237.277 619.868C157.797 690.126 78.9233 760.836 0.00390625 831.506V847.394C20.5901 828.049 41.1685 808.697 61.7585 789.354C111.471 742.647 161.214 695.961 210.788 649.161V649.158Z" fill="url(#paint58_radial_573_306)"/>
<path d="M333.66 661.428C346.605 646.569 359.557 631.71 372.352 616.767C376.941 611.409 386.099 600.045 386.099 600.045C385.972 599.97 374.368 611.911 368.938 617.713C354.219 633.437 339.651 649.254 325.074 665.065C227.538 770.879 130.433 876.954 33.0777 982.877C22.0569 994.87 11.0285 1006.86 0.00390625 1018.85V1043.02C68.7473 964.365 137.521 885.726 206.319 807.103C248.797 758.56 291.309 710.039 333.66 661.425V661.428Z" fill="url(#paint59_radial_573_306)"/>
<path d="M297.203 639.152C310.92 624.752 324.64 610.355 338.207 595.862C343.068 590.668 352.818 579.623 352.818 579.623C352.695 579.546 340.468 591.071 334.735 596.677C319.199 611.877 303.808 627.177 288.41 642.47C192.095 738.151 96.1341 834.064 0.00390625 929.866V950.064C54.0939 893.472 108.199 836.889 162.316 780.312C207.305 733.276 252.337 686.265 297.203 639.152Z" fill="url(#paint60_radial_573_306)"/>
<path d="M355.836 882.005C389.774 829.261 423.75 776.532 457.55 723.729C467.879 707.589 478.22 691.453 488.393 675.245C492.04 669.431 499.214 657.177 499.214 657.177C499.079 657.121 489.606 670.219 485.198 676.572C473.267 693.769 461.493 711.04 449.716 728.309C370.904 843.862 292.546 959.618 213.922 1075.26C174.274 1133.57 134.588 1191.87 94.917 1250.17H119.201C122.818 1244.53 126.439 1238.9 130.057 1233.26C205.251 1116.15 280.519 999.066 355.84 882.005H355.836Z" fill="url(#paint61_radial_573_306)"/>
<path d="M627.745 845.323C634.423 826.749 641.109 808.176 647.594 789.559C649.925 782.867 654.318 768.69 654.318 768.69C654.026 768.619 643.835 792.901 639.212 804.365C591.688 922.21 545.67 1040.46 499.01 1158.53C486.937 1189.08 474.853 1219.62 462.772 1250.17H481.142C508.495 1174.63 535.858 1099.1 563.245 1023.57C584.787 964.164 606.368 904.768 627.742 845.323H627.745Z" fill="url(#paint62_radial_573_306)"/>
<path d="M322.359 867.199C358.209 815.286 394.094 763.385 429.806 711.409C440.723 695.521 451.644 679.639 462.403 663.679C466.263 657.955 473.881 645.874 473.881 645.874C473.751 645.812 463.797 658.684 459.159 664.926C446.602 681.831 434.203 698.814 421.799 715.791C338.79 829.413 256.235 943.255 173.41 1056.96C126.493 1121.37 79.5493 1185.77 32.6055 1250.17H58.1874C66.7391 1237.75 75.2946 1225.34 83.8462 1212.93C163.28 1097.66 242.791 982.412 322.355 867.196L322.359 867.199Z" fill="url(#paint63_radial_573_306)"/>
</g>
</g>
<defs>
<radialGradient id="paint0_radial_573_306" cx="0" cy="0" r="1" gradientTransform="matrix(-3.42698 70.4647 -173.675 -10.9797 1817.43 507.387)" gradientUnits="userSpaceOnUse">
<stop stop-opacity="0"/>
<stop offset="0.774038" stop-color="#E4C257" stop-opacity="0.12"/>
<stop offset="1" stop-color="#E4C257" stop-opacity="0"/>
</radialGradient>
<radialGradient id="paint1_radial_573_306" cx="0" cy="0" r="1" gradientTransform="matrix(-3.8271 84.4479 -193.952 -13.1585 1805.46 541.241)" gradientUnits="userSpaceOnUse">
<stop stop-opacity="0"/>
<stop offset="0.774038" stop-color="#E4C257" stop-opacity="0.12"/>
<stop offset="1" stop-color="#E4C257" stop-opacity="0"/>
</radialGradient>
<radialGradient id="paint2_radial_573_306" cx="0" cy="0" r="1" gradientTransform="matrix(-7.89038 323.127 -399.873 -50.349 1683.85 903.9)" gradientUnits="userSpaceOnUse">
<stop stop-opacity="0"/>
<stop offset="0.774038" stop-color="#E4C257" stop-opacity="0.12"/>
<stop offset="1" stop-color="#E4C257" stop-opacity="0"/>
</radialGradient>
<radialGradient id="paint3_radial_573_306" cx="0" cy="0" r="1" gradientTransform="matrix(-4.32235 103.619 -219.051 -16.1457 1790.63 582.734)" gradientUnits="userSpaceOnUse">
<stop stop-opacity="0"/>
<stop offset="0.774038" stop-color="#E4C257" stop-opacity="0.12"/>
<stop offset="1" stop-color="#E4C257" stop-opacity="0"/>
</radialGradient>
<radialGradient id="paint4_radial_573_306" cx="0" cy="0" r="1" gradientTransform="matrix(-4.67108 118.436 -236.724 -18.4545 1780.2 611.883)" gradientUnits="userSpaceOnUse">
<stop stop-opacity="0"/>
<stop offset="0.774038" stop-color="#E4C257" stop-opacity="0.12"/>
<stop offset="1" stop-color="#E4C257" stop-opacity="0"/>
</radialGradient>
<radialGradient id="paint5_radial_573_306" cx="0" cy="0" r="1" gradientTransform="matrix(-5.01863 134.351 -254.337 -20.9344 1769.8 641.028)" gradientUnits="userSpaceOnUse">
<stop stop-opacity="0"/>
<stop offset="0.774038" stop-color="#E4C257" stop-opacity="0.12"/>
<stop offset="1" stop-color="#E4C257" stop-opacity="0"/>
</radialGradient>
<radialGradient id="paint6_radial_573_306" cx="0" cy="0" r="1" gradientTransform="matrix(-6.50543 217.508 -329.686 -33.8917 1725.29 770.002)" gradientUnits="userSpaceOnUse">
<stop stop-opacity="0"/>
<stop offset="0.774038" stop-color="#E4C257" stop-opacity="0.12"/>
<stop offset="1" stop-color="#E4C257" stop-opacity="0"/>
</radialGradient>
<radialGradient id="paint7_radial_573_306" cx="0" cy="0" r="1" gradientTransform="matrix(-5.44549 155.601 -275.97 -24.2455 1757.02 677.162)" gradientUnits="userSpaceOnUse">
<stop stop-opacity="0"/>
<stop offset="0.774038" stop-color="#E4C257" stop-opacity="0.12"/>
<stop offset="1" stop-color="#E4C257" stop-opacity="0"/>
</radialGradient>
<radialGradient id="paint8_radial_573_306" cx="0" cy="0" r="1" gradientTransform="matrix(-5.85844 212.99 -296.898 -33.1876 1744.66 857.254)" gradientUnits="userSpaceOnUse">
<stop stop-opacity="0"/>
<stop offset="0.774038" stop-color="#E4C257" stop-opacity="0.12"/>
<stop offset="1" stop-color="#E4C257" stop-opacity="0"/>
</radialGradient>
<radialGradient id="paint9_radial_573_306" cx="0" cy="0" r="1" gradientTransform="matrix(-6.21022 302.158 -314.726 -47.0817 1589.9 980.079)" gradientUnits="userSpaceOnUse">
<stop stop-opacity="0"/>
<stop offset="0.774038" stop-color="#E4C257" stop-opacity="0.12"/>
<stop offset="1" stop-color="#E4C257" stop-opacity="0"/>
</radialGradient>
<radialGradient id="paint10_radial_573_306" cx="0" cy="0" r="1" gradientTransform="matrix(-2.0113 286.712 -101.93 -44.675 740.51 993.883)" gradientUnits="userSpaceOnUse">
<stop stop-opacity="0"/>
<stop offset="0.774038" stop-color="#E4C257" stop-opacity="0.12"/>
<stop offset="1" stop-color="#E4C257" stop-opacity="0"/>
</radialGradient>
<radialGradient id="paint11_radial_573_306" cx="0" cy="0" r="1" gradientTransform="matrix(-5.13364 290.133 -260.166 -45.208 1506.88 990.828)" gradientUnits="userSpaceOnUse">
<stop stop-opacity="0"/>
<stop offset="0.774038" stop-color="#E4C257" stop-opacity="0.12"/>
<stop offset="1" stop-color="#E4C257" stop-opacity="0"/>
</radialGradient>
<radialGradient id="paint12_radial_573_306" cx="0" cy="0" r="1" gradientTransform="matrix(-4.04868 278.126 -205.181 -43.3371 1412.83 1001.56)" gradientUnits="userSpaceOnUse">
<stop stop-opacity="0"/>
<stop offset="0.774038" stop-color="#E4C257" stop-opacity="0.12"/>
<stop offset="1" stop-color="#E4C257" stop-opacity="0"/>
</radialGradient>
<radialGradient id="paint13_radial_573_306" cx="0" cy="0" r="1" gradientTransform="matrix(-1.19625 253.36 -60.6245 -39.478 1100.93 1023.7)" gradientUnits="userSpaceOnUse">
<stop stop-opacity="0"/>
<stop offset="0.774038" stop-color="#E4C257" stop-opacity="0.12"/>
<stop offset="1" stop-color="#E4C257" stop-opacity="0"/>
</radialGradient>
<radialGradient id="paint14_radial_573_306" cx="0" cy="0" r="1" gradientTransform="matrix(-0.750966 251.63 -38.0579 -39.2084 1043.93 1025.24)" gradientUnits="userSpaceOnUse">
<stop stop-opacity="0"/>
<stop offset="0.774038" stop-color="#E4C257" stop-opacity="0.12"/>
<stop offset="1" stop-color="#E4C257" stop-opacity="0"/>
</radialGradient>
<radialGradient id="paint15_radial_573_306" cx="0" cy="0" r="1" gradientTransform="matrix(-0.543447 251.128 -27.5412 -39.1304 902.562 1025.7)" gradientUnits="userSpaceOnUse">
<stop stop-opacity="0"/>
<stop offset="0.774038" stop-color="#E4C257" stop-opacity="0.12"/>
<stop offset="1" stop-color="#E4C257" stop-opacity="0"/>
</radialGradient>
<radialGradient id="paint16_radial_573_306" cx="0" cy="0" r="1" gradientTransform="matrix(-1.4345 254.626 -72.6985 -39.6753 784.161 1022.57)" gradientUnits="userSpaceOnUse">
<stop stop-opacity="0"/>
<stop offset="0.774038" stop-color="#E4C257" stop-opacity="0.12"/>
<stop offset="1" stop-color="#E4C257" stop-opacity="0"/>
</radialGradient>
<radialGradient id="paint17_radial_573_306" cx="0" cy="0" r="1" gradientTransform="matrix(-0.511399 251.066 -25.917 -39.1207 1012.51 1025.75)" gradientUnits="userSpaceOnUse">
<stop stop-opacity="0"/>
<stop offset="0.774038" stop-color="#E4C257" stop-opacity="0.12"/>
<stop offset="1" stop-color="#E4C257" stop-opacity="0"/>
</radialGradient>
<radialGradient id="paint18_radial_573_306" cx="0" cy="0" r="1" gradientTransform="matrix(-0.285108 250.757 -14.4489 -39.0724 973.094 1026.03)" gradientUnits="userSpaceOnUse">
<stop stop-opacity="0"/>
<stop offset="0.774038" stop-color="#E4C257" stop-opacity="0.12"/>
<stop offset="1" stop-color="#E4C257" stop-opacity="0"/>
</radialGradient>
<radialGradient id="paint19_radial_573_306" cx="0" cy="0" r="1" gradientTransform="matrix(-5.60837 295.445 -284.225 -46.0357 1544.62 986.079)" gradientUnits="userSpaceOnUse">
<stop stop-opacity="0"/>
<stop offset="0.774038" stop-color="#E4C257" stop-opacity="0.12"/>
<stop offset="1" stop-color="#E4C257" stop-opacity="0"/>
</radialGradient>
<radialGradient id="paint20_radial_573_306" cx="0" cy="0" r="1" gradientTransform="matrix(-8.14833 346.073 -412.946 -53.9244 1655.06 940.828)" gradientUnits="userSpaceOnUse">
<stop stop-opacity="0"/>
<stop offset="0.774038" stop-color="#E4C257" stop-opacity="0.12"/>
<stop offset="1" stop-color="#E4C257" stop-opacity="0"/>
</radialGradient>
<radialGradient id="paint21_radial_573_306" cx="0" cy="0" r="1" gradientTransform="matrix(-3.79809 304.706 -192.482 -47.4787 1338.45 977.804)" gradientUnits="userSpaceOnUse">
<stop stop-opacity="0"/>
<stop offset="0.774038" stop-color="#E4C257" stop-opacity="0.12"/>
<stop offset="1" stop-color="#E4C257" stop-opacity="0"/>
</radialGradient>
<radialGradient id="paint22_radial_573_306" cx="0" cy="0" r="1" gradientTransform="matrix(-2.342 293.43 -118.689 -45.7217 1200.99 987.884)" gradientUnits="userSpaceOnUse">
<stop stop-opacity="0"/>
<stop offset="0.774038" stop-color="#E4C257" stop-opacity="0.12"/>
<stop offset="1" stop-color="#E4C257" stop-opacity="0"/>
</radialGradient>
<radialGradient id="paint23_radial_573_306" cx="0" cy="0" r="1" gradientTransform="matrix(-3.37719 301.136 -171.152 -46.9225 1300.59 980.992)" gradientUnits="userSpaceOnUse">
<stop stop-opacity="0"/>
<stop offset="0.774038" stop-color="#E4C257" stop-opacity="0.12"/>
<stop offset="1" stop-color="#E4C257" stop-opacity="0"/>
</radialGradient>
<radialGradient id="paint24_radial_573_306" cx="0" cy="0" r="1" gradientTransform="matrix(-4.95139 315.256 -250.93 -49.1226 1434.73 968.371)" gradientUnits="userSpaceOnUse">
<stop stop-opacity="0"/>
<stop offset="0.774038" stop-color="#E4C257" stop-opacity="0.12"/>
<stop offset="1" stop-color="#E4C257" stop-opacity="0"/>
</radialGradient>
<radialGradient id="paint25_radial_573_306" cx="0" cy="0" r="1" gradientTransform="matrix(-2.99716 216.825 -151.892 -33.7852 1408.59 1056.36)" gradientUnits="userSpaceOnUse">
<stop stop-opacity="0"/>
<stop offset="0.774038" stop-color="#E4C257" stop-opacity="0.12"/>
<stop offset="1" stop-color="#E4C257" stop-opacity="0"/>
</radialGradient>
<radialGradient id="paint26_radial_573_306" cx="0" cy="0" r="1" gradientTransform="matrix(-6.89847 314.824 -349.605 -49.0552 1624.66 968.757)" gradientUnits="userSpaceOnUse">
<stop stop-opacity="0"/>
<stop offset="0.774038" stop-color="#E4C257" stop-opacity="0.12"/>
<stop offset="1" stop-color="#E4C257" stop-opacity="0"/>
</radialGradient>
<radialGradient id="paint27_radial_573_306" cx="0" cy="0" r="1" gradientTransform="matrix(-7.50852 290.712 -380.522 -45.2982 1695.28 865.029)" gradientUnits="userSpaceOnUse">
<stop stop-opacity="0"/>
<stop offset="0.774038" stop-color="#E4C257" stop-opacity="0.12"/>
<stop offset="1" stop-color="#E4C257" stop-opacity="0"/>
</radialGradient>
<radialGradient id="paint28_radial_573_306" cx="0" cy="0" r="1" gradientTransform="matrix(-8.22861 350.615 -417.015 -54.6321 1673.72 936.762)" gradientUnits="userSpaceOnUse">
<stop stop-opacity="0"/>
<stop offset="0.774038" stop-color="#E4C257" stop-opacity="0.12"/>
<stop offset="1" stop-color="#E4C257" stop-opacity="0"/>
</radialGradient>
<radialGradient id="paint29_radial_573_306" cx="0" cy="0" r="1" gradientTransform="matrix(-5.70498 169.489 -289.121 -26.4094 1749.26 699.396)" gradientUnits="userSpaceOnUse">
<stop stop-opacity="0"/>
<stop offset="0.774038" stop-color="#E4C257" stop-opacity="0.12"/>
<stop offset="1" stop-color="#E4C257" stop-opacity="0"/>
</radialGradient>
<radialGradient id="paint30_radial_573_306" cx="0" cy="0" r="1" gradientTransform="matrix(-3.04134 298.443 -154.131 -46.5028 1269.28 983.4)" gradientUnits="userSpaceOnUse">
<stop stop-opacity="0"/>
<stop offset="0.774038" stop-color="#E4C257" stop-opacity="0.12"/>
<stop offset="1" stop-color="#E4C257" stop-opacity="0"/>
</radialGradient>
<radialGradient id="paint31_radial_573_306" cx="0" cy="0" r="1" gradientTransform="matrix(-2.65356 295.553 -134.479 -46.0526 1231.93 985.986)" gradientUnits="userSpaceOnUse">
<stop stop-opacity="0"/>
<stop offset="0.774038" stop-color="#E4C257" stop-opacity="0.12"/>
<stop offset="1" stop-color="#E4C257" stop-opacity="0"/>
</radialGradient>
<radialGradient id="paint32_radial_573_306" cx="0" cy="0" r="1" gradientTransform="matrix(-1.64269 289.448 -83.2494 -45.1012 1128.7 991.443)" gradientUnits="userSpaceOnUse">
<stop stop-opacity="0"/>
<stop offset="0.774038" stop-color="#E4C257" stop-opacity="0.12"/>
<stop offset="1" stop-color="#E4C257" stop-opacity="0"/>
</radialGradient>
<radialGradient id="paint33_radial_573_306" cx="0" cy="0" r="1" gradientTransform="matrix(-1.75462 259.757 -88.9218 -40.4748 1166.68 1017.98)" gradientUnits="userSpaceOnUse">
<stop stop-opacity="0"/>
<stop offset="0.774038" stop-color="#E4C257" stop-opacity="0.12"/>
<stop offset="1" stop-color="#E4C257" stop-opacity="0"/>
</radialGradient>
<radialGradient id="paint34_radial_573_306" cx="0" cy="0" r="1" gradientTransform="matrix(-1.18733 256.529 -60.1723 -39.9719 818.378 1020.87)" gradientUnits="userSpaceOnUse">
<stop stop-opacity="0"/>
<stop offset="0.774038" stop-color="#E4C257" stop-opacity="0.12"/>
<stop offset="1" stop-color="#E4C257" stop-opacity="0"/>
</radialGradient>
<radialGradient id="paint35_radial_573_306" cx="0" cy="0" r="1" gradientTransform="matrix(-2.87411 268.892 -145.656 -41.8982 615.578 1009.81)" gradientUnits="userSpaceOnUse">
<stop stop-opacity="0"/>
<stop offset="0.774038" stop-color="#E4C257" stop-opacity="0.12"/>
<stop offset="1" stop-color="#E4C257" stop-opacity="0"/>
</radialGradient>
<radialGradient id="paint36_radial_573_306" cx="0" cy="0" r="1" gradientTransform="matrix(-2.09399 40.9968 -106.121 -6.38805 1857.33 496.044)" gradientUnits="userSpaceOnUse">
<stop stop-opacity="0"/>
<stop offset="0.774038" stop-color="#E4C257" stop-opacity="0.12"/>
<stop offset="1" stop-color="#E4C257" stop-opacity="0"/>
</radialGradient>
<radialGradient id="paint37_radial_573_306" cx="0" cy="0" r="1" gradientTransform="matrix(-2.22228 263.205 -112.622 -41.012 690.021 1014.9)" gradientUnits="userSpaceOnUse">
<stop stop-opacity="0"/>
<stop offset="0.774038" stop-color="#E4C257" stop-opacity="0.12"/>
<stop offset="1" stop-color="#E4C257" stop-opacity="0"/>
</radialGradient>
<radialGradient id="paint38_radial_573_306" cx="0" cy="0" r="1" gradientTransform="matrix(-2.80257 298.51 -142.031 -46.5133 663.891 983.34)" gradientUnits="userSpaceOnUse">
<stop stop-opacity="0"/>
<stop offset="0.774038" stop-color="#E4C257" stop-opacity="0.12"/>
<stop offset="1" stop-color="#E4C257" stop-opacity="0"/>
</radialGradient>
<radialGradient id="paint39_radial_573_306" cx="0" cy="0" r="1" gradientTransform="matrix(-0.94094 255.504 -47.6856 -39.8121 1066.8 1021.78)" gradientUnits="userSpaceOnUse">
<stop stop-opacity="0"/>
<stop offset="0.774038" stop-color="#E4C257" stop-opacity="0.12"/>
<stop offset="1" stop-color="#E4C257" stop-opacity="0"/>
</radialGradient>
<radialGradient id="paint40_radial_573_306" cx="0" cy="0" r="1" gradientTransform="matrix(-0.31076 254.085 -15.7489 -39.5911 936.693 1023.05)" gradientUnits="userSpaceOnUse">
<stop stop-opacity="0"/>
<stop offset="0.774038" stop-color="#E4C257" stop-opacity="0.12"/>
<stop offset="1" stop-color="#E4C257" stop-opacity="0"/>
</radialGradient>
<radialGradient id="paint41_radial_573_306" cx="0" cy="0" r="1" gradientTransform="matrix(-1.04922 302.139 -53.1732 -47.0786 858.422 980.097)" gradientUnits="userSpaceOnUse">
<stop stop-opacity="0"/>
<stop offset="0.774038" stop-color="#E4C257" stop-opacity="0.12"/>
<stop offset="1" stop-color="#E4C257" stop-opacity="0"/>
</radialGradient>
<radialGradient id="paint42_radial_573_306" cx="0" cy="0" r="1" gradientTransform="matrix(-6.11791 193.234 -310.047 -30.1093 1736.9 735.381)" gradientUnits="userSpaceOnUse">
<stop stop-opacity="0"/>
<stop offset="0.774038" stop-color="#E4C257" stop-opacity="0.12"/>
<stop offset="1" stop-color="#E4C257" stop-opacity="0"/>
</radialGradient>
<radialGradient id="paint43_radial_573_306" cx="0" cy="0" r="1" gradientTransform="matrix(-4.44056 310.479 -225.042 -48.3782 506.488 972.645)" gradientUnits="userSpaceOnUse">
<stop stop-opacity="0"/>
<stop offset="0.774038" stop-color="#E4C257" stop-opacity="0.12"/>
<stop offset="1" stop-color="#E4C257" stop-opacity="0"/>
</radialGradient>
<radialGradient id="paint44_radial_573_306" cx="0" cy="0" r="1" gradientTransform="matrix(-5.04319 316.127 -255.582 -49.2583 454.918 967.592)" gradientUnits="userSpaceOnUse">
<stop stop-opacity="0"/>
<stop offset="0.774038" stop-color="#E4C257" stop-opacity="0.12"/>
<stop offset="1" stop-color="#E4C257" stop-opacity="0"/>
</radialGradient>
<radialGradient id="paint45_radial_573_306" cx="0" cy="0" r="1" gradientTransform="matrix(-6.75076 232.66 -342.119 -36.2527 168.287 790.058)" gradientUnits="userSpaceOnUse">
<stop stop-opacity="0"/>
<stop offset="0.774038" stop-color="#E4C257" stop-opacity="0.12"/>
<stop offset="1" stop-color="#E4C257" stop-opacity="0"/>
</radialGradient>
<radialGradient id="paint46_radial_573_306" cx="0" cy="0" r="1" gradientTransform="matrix(-5.64736 321.924 -286.2 -50.1616 405.886 962.41)" gradientUnits="userSpaceOnUse">
<stop stop-opacity="0"/>
<stop offset="0.774038" stop-color="#E4C257" stop-opacity="0.12"/>
<stop offset="1" stop-color="#E4C257" stop-opacity="0"/>
</radialGradient>
<radialGradient id="paint47_radial_573_306" cx="0" cy="0" r="1" gradientTransform="matrix(-6.15338 326.834 -311.845 -50.9267 366.68 958.022)" gradientUnits="userSpaceOnUse">
<stop stop-opacity="0"/>
<stop offset="0.774038" stop-color="#E4C257" stop-opacity="0.12"/>
<stop offset="1" stop-color="#E4C257" stop-opacity="0"/>
</radialGradient>
<radialGradient id="paint48_radial_573_306" cx="0" cy="0" r="1" gradientTransform="matrix(-6.59053 331.081 -333.999 -51.5883 334.093 954.226)" gradientUnits="userSpaceOnUse">
<stop stop-opacity="0"/>
<stop offset="0.774038" stop-color="#E4C257" stop-opacity="0.12"/>
<stop offset="1" stop-color="#E4C257" stop-opacity="0"/>
</radialGradient>
<radialGradient id="paint49_radial_573_306" cx="0" cy="0" r="1" gradientTransform="matrix(-8.18302 347.975 -414.704 -54.2208 203.991 932.241)" gradientUnits="userSpaceOnUse">
<stop stop-opacity="0"/>
<stop offset="0.774038" stop-color="#E4C257" stop-opacity="0.12"/>
<stop offset="1" stop-color="#E4C257" stop-opacity="0"/>
</radialGradient>
<radialGradient id="paint50_radial_573_306" cx="0" cy="0" r="1" gradientTransform="matrix(-6.41476 249.563 -325.091 -38.8865 159.915 904.617)" gradientUnits="userSpaceOnUse">
<stop stop-opacity="0"/>
<stop offset="0.774038" stop-color="#E4C257" stop-opacity="0.12"/>
<stop offset="1" stop-color="#E4C257" stop-opacity="0"/>
</radialGradient>
<radialGradient id="paint51_radial_573_306" cx="0" cy="0" r="1" gradientTransform="matrix(-4.39163 123.191 -222.562 -19.1954 109.481 688.052)" gradientUnits="userSpaceOnUse">
<stop stop-opacity="0"/>
<stop offset="0.774038" stop-color="#E4C257" stop-opacity="0.12"/>
<stop offset="1" stop-color="#E4C257" stop-opacity="0"/>
</radialGradient>
<radialGradient id="paint52_radial_573_306" cx="0" cy="0" r="1" gradientTransform="matrix(-3.55031 88.2629 -179.925 -13.753 88.5082 620.923)" gradientUnits="userSpaceOnUse">
<stop stop-opacity="0"/>
<stop offset="0.774038" stop-color="#E4C257" stop-opacity="0.12"/>
<stop offset="1" stop-color="#E4C257" stop-opacity="0"/>
</radialGradient>
<radialGradient id="paint53_radial_573_306" cx="0" cy="0" r="1" gradientTransform="matrix(-2.62211 56.5572 -132.885 -8.81263 65.3696 546.811)" gradientUnits="userSpaceOnUse">
<stop stop-opacity="0"/>
<stop offset="0.774038" stop-color="#E4C257" stop-opacity="0.12"/>
<stop offset="1" stop-color="#E4C257" stop-opacity="0"/>
</radialGradient>
<radialGradient id="paint54_radial_573_306" cx="0" cy="0" r="1" gradientTransform="matrix(-3.9309 103.282 -199.212 -16.0932 97.9957 651.188)" gradientUnits="userSpaceOnUse">
<stop stop-opacity="0"/>
<stop offset="0.774038" stop-color="#E4C257" stop-opacity="0.12"/>
<stop offset="1" stop-color="#E4C257" stop-opacity="0"/>
</radialGradient>
<radialGradient id="paint55_radial_573_306" cx="0" cy="0" r="1" gradientTransform="matrix(-6.13168 192.977 -310.745 -30.0694 152.858 734.267)" gradientUnits="userSpaceOnUse">
<stop stop-opacity="0"/>
<stop offset="0.774038" stop-color="#E4C257" stop-opacity="0.12"/>
<stop offset="1" stop-color="#E4C257" stop-opacity="0"/>
</radialGradient>
<radialGradient id="paint56_radial_573_306" cx="0" cy="0" r="1" gradientTransform="matrix(-3.13983 60.7513 -159.122 -9.46616 78.2795 480.082)" gradientUnits="userSpaceOnUse">
<stop stop-opacity="0"/>
<stop offset="0.774038" stop-color="#E4C257" stop-opacity="0.12"/>
<stop offset="1" stop-color="#E4C257" stop-opacity="0"/>
</radialGradient>
<radialGradient id="paint57_radial_573_306" cx="0" cy="0" r="1" gradientTransform="matrix(-4.02378 91.177 -203.92 -14.207 100.311 555.27)" gradientUnits="userSpaceOnUse">
<stop stop-opacity="0"/>
<stop offset="0.774038" stop-color="#E4C257" stop-opacity="0.12"/>
<stop offset="1" stop-color="#E4C257" stop-opacity="0"/>
</radialGradient>
<radialGradient id="paint58_radial_573_306" cx="0" cy="0" r="1" gradientTransform="matrix(-4.98677 147.736 -252.723 -23.02 124.317 715.337)" gradientUnits="userSpaceOnUse">
<stop stop-opacity="0"/>
<stop offset="0.774038" stop-color="#E4C257" stop-opacity="0.12"/>
<stop offset="1" stop-color="#E4C257" stop-opacity="0"/>
</radialGradient>
<radialGradient id="paint59_radial_573_306" cx="0" cy="0" r="1" gradientTransform="matrix(-7.03818 252.96 -356.685 -39.4157 175.456 816.905)" gradientUnits="userSpaceOnUse">
<stop stop-opacity="0"/>
<stop offset="0.774038" stop-color="#E4C257" stop-opacity="0.12"/>
<stop offset="1" stop-color="#E4C257" stop-opacity="0"/>
</radialGradient>
<radialGradient id="paint60_radial_573_306" cx="0" cy="0" r="1" gradientTransform="matrix(-6.43149 211.54 -325.939 -32.9617 160.332 760.975)" gradientUnits="userSpaceOnUse">
<stop stop-opacity="0"/>
<stop offset="0.774038" stop-color="#E4C257" stop-opacity="0.12"/>
<stop offset="1" stop-color="#E4C257" stop-opacity="0"/>
</radialGradient>
<radialGradient id="paint61_radial_573_306" cx="0" cy="0" r="1" gradientTransform="matrix(-7.36997 338.627 -373.5 -52.7643 278.64 947.48)" gradientUnits="userSpaceOnUse">
<stop stop-opacity="0"/>
<stop offset="0.774038" stop-color="#E4C257" stop-opacity="0.12"/>
<stop offset="1" stop-color="#E4C257" stop-opacity="0"/>
</radialGradient>
<radialGradient id="paint62_radial_573_306" cx="0" cy="0" r="1" gradientTransform="matrix(-3.49172 274.948 -176.956 -42.8419 549.816 1004.4)" gradientUnits="userSpaceOnUse">
<stop stop-opacity="0"/>
<stop offset="0.774038" stop-color="#E4C257" stop-opacity="0.12"/>
<stop offset="1" stop-color="#E4C257" stop-opacity="0"/>
</radialGradient>
<radialGradient id="paint63_radial_573_306" cx="0" cy="0" r="1" gradientTransform="matrix(-8.04407 345.08 -407.662 -53.7697 233.133 941.709)" gradientUnits="userSpaceOnUse">
<stop stop-opacity="0"/>
<stop offset="0.774038" stop-color="#E4C257" stop-opacity="0.12"/>
<stop offset="1" stop-color="#E4C257" stop-opacity="0"/>
</radialGradient>
<clipPath id="clip0_573_306">
<rect width="1920" height="652" fill="white" transform="translate(0 428)"/>
</clipPath>
</defs>
</svg>
